<svg width="36" height="36" viewBox="0 0 36 36" fill="none" xmlns="http://www.w3.org/2000/svg">
<g id="Lucide Icons / anvil">
<path id="Vector" d="M10.9772 15.3184H9.51885C7.97175 15.3184 6.48802 14.7038 5.39406 13.6098C4.3001 12.5159 3.68552 11.0321 3.68552 9.48503C3.68552 9.09825 3.83916 8.72732 4.11265 8.45383C4.38614 8.18034 4.75708 8.02669 5.14385 8.02669H10.9772M10.9772 8.02669C10.9772 7.63992 11.1308 7.26899 11.4043 6.9955C11.6778 6.72201 12.0487 6.56836 12.4355 6.56836H31.3938C31.7806 6.56836 32.1516 6.72201 32.425 6.9955C32.6985 7.26899 32.8522 7.63992 32.8522 8.02669C32.8522 10.7341 31.7767 13.3306 29.8622 15.2451C27.9478 17.1595 25.3513 18.235 22.6438 18.235M10.9772 8.02669V16.7767C10.9772 17.1635 11.1308 17.5344 11.4043 17.8079C11.6778 18.0814 12.0487 18.235 12.4355 18.235H22.6438M22.6438 18.235V25.5267M13.8938 18.235V25.5267M8.06052 29.9017C8.06052 28.7414 8.52145 27.6286 9.34192 26.8081C10.1624 25.9876 11.2752 25.5267 12.4355 25.5267H24.1022C25.2625 25.5267 26.3753 25.9876 27.1958 26.8081C28.0162 27.6286 28.4772 28.7414 28.4772 29.9017C28.4772 30.2885 28.3235 30.6594 28.05 30.9329C27.7766 31.2064 27.4056 31.36 27.0188 31.36H9.51885C9.13208 31.36 8.76114 31.2064 8.48765 30.9329C8.21416 30.6594 8.06052 30.2885 8.06052 29.9017Z" stroke="black" stroke-width="2" stroke-linecap="round" stroke-linejoin="round"/>
</g>
</svg>
