<svg width="36" height="36" viewBox="0 0 36 36" fill="none" xmlns="http://www.w3.org/2000/svg">
<g id="Lucide Icons / hand-heart">
<path id="Vector" d="M16.8105 21.1518H19.7272C20.5007 21.1518 21.2426 20.8445 21.7896 20.2975C22.3366 19.7505 22.6439 19.0087 22.6439 18.2351C22.6439 17.4616 22.3366 16.7197 21.7896 16.1727C21.2426 15.6257 20.5007 15.3184 19.7272 15.3184H15.3522C14.4772 15.3184 13.748 15.6101 13.3105 16.1934L5.14386 24.0684M10.9772 29.9018L13.3105 27.8601C13.748 27.2768 14.4772 26.9851 15.3522 26.9851H21.1855C22.7897 26.9851 24.248 26.4018 25.2689 25.2351L31.9772 18.8185C32.54 18.2867 32.8684 17.5531 32.8903 16.7791C32.9122 16.0051 32.6257 15.2542 32.0939 14.6914C31.5621 14.1286 30.8285 13.8002 30.0545 13.7783C29.2805 13.7564 28.5295 14.0429 27.9668 14.5747L21.8418 20.2622M3.68553 22.6101L12.4355 31.3601M29.2062 13.1309C30.2271 12.1101 31.3937 10.7976 31.3937 9.19344C31.4957 8.30229 31.2937 7.40284 30.8205 6.64083C30.3473 5.87882 29.6307 5.29893 28.7868 4.99511C27.9429 4.69129 27.0211 4.68136 26.1708 4.96692C25.3205 5.25248 24.5915 5.81681 24.1021 6.56844C23.5815 5.87512 22.8523 5.36696 22.0217 5.11854C21.191 4.87013 20.3026 4.89455 19.4868 5.18822C18.6711 5.48189 17.971 6.02935 17.4893 6.75022C17.0075 7.47108 16.7696 8.3274 16.8104 9.19344C16.8104 10.9434 17.9771 12.1101 18.9979 13.2768L24.1021 18.2351L29.2062 13.1309Z" stroke="black" stroke-width="2" stroke-linecap="round" stroke-linejoin="round"/>
</g>
</svg>
