<svg width="36" height="36" viewBox="0 0 36 36" fill="none" xmlns="http://www.w3.org/2000/svg">
<g id="Lucide Icons / leaf">
<path id="Vector" d="M3.68552 31.3607C3.68552 26.9857 6.38343 23.544 11.0938 22.6107C14.623 21.9107 18.2689 19.694 19.7272 18.2357M16.8105 29.9023C14.2497 29.9101 11.7796 28.9552 9.88999 27.2269C8.00038 25.4987 6.82931 23.1234 6.60906 20.5721C6.38881 18.0208 7.13545 15.48 8.70091 13.4534C10.2664 11.4269 12.5363 10.0627 15.0605 9.63151C23.373 8.02734 25.5605 7.26901 28.4772 3.65234C29.9355 6.56901 31.3938 9.74818 31.3938 15.319C31.3938 23.3398 24.423 29.9023 16.8105 29.9023Z" stroke="black" stroke-width="2" stroke-linecap="round" stroke-linejoin="round"/>
</g>
</svg>
