<svg width="25" height="25" viewBox="0 0 25 25" fill="none" xmlns="http://www.w3.org/2000/svg">
<g id="shopping-bag">
<path id="Icon" d="M3.26886 6.73535L6.26886 2.73535H18.2689L21.2689 6.73535M3.26886 6.73535V20.7354C3.26886 21.2658 3.47957 21.7745 3.85465 22.1496C4.22972 22.5246 4.73843 22.7354 5.26886 22.7354H19.2689C19.7993 22.7354 20.308 22.5246 20.6831 22.1496C21.0581 21.7745 21.2689 21.2658 21.2689 20.7354V6.73535M3.26886 6.73535H21.2689M16.2689 10.7354C16.2689 11.7962 15.8474 12.8136 15.0973 13.5638C14.3471 14.3139 13.3297 14.7354 12.2689 14.7354C11.208 14.7354 10.1906 14.3139 9.44043 13.5638C8.69029 12.8136 8.26886 11.7962 8.26886 10.7354" stroke="#212121" stroke-width="1.5" stroke-linecap="round" stroke-linejoin="round"/>
</g>
</svg>
